<svg xmlns="http://www.w3.org/2000/svg" viewBox="0 0 512 512">
  <rect width="512" height="512" rx="100" fill="#38240D"/>
  <g transform="rotate(-6 256 266)">
    <rect x="126" y="96" width="260" height="340" rx="24" fill="#FDFBD4" stroke="#713600" stroke-width="8"/>
    <circle cx="126" cy="140" r="10" fill="none" stroke="#C05800" stroke-width="7"/>
    <circle cx="126" cy="186" r="10" fill="none" stroke="#C05800" stroke-width="7"/>
    <circle cx="126" cy="232" r="10" fill="none" stroke="#C05800" stroke-width="7"/>
    <circle cx="126" cy="278" r="10" fill="none" stroke="#C05800" stroke-width="7"/>
    <circle cx="126" cy="324" r="10" fill="none" stroke="#C05800" stroke-width="7"/>
    <circle cx="126" cy="370" r="10" fill="none" stroke="#C05800" stroke-width="7"/>
    <path fill-rule="evenodd" fill="#C05800" d="
      M 256,208 m -48,0 a 48,48 0 1,0 96,0 a 48,48 0 1,0 -96,0 Z
      M 280,200 m -42,0 a 42,42 0 1,0 84,0 a 42,42 0 1,0 -84,0 Z
    "/>
    <line x1="166" y1="320" x2="330" y2="320" stroke="#713600" stroke-width="8" stroke-linecap="round" opacity="0.6"/>
    <line x1="166" y1="352" x2="300" y2="352" stroke="#713600" stroke-width="8" stroke-linecap="round" opacity="0.6"/>
    <line x1="166" y1="384" x2="316" y2="384" stroke="#713600" stroke-width="8" stroke-linecap="round" opacity="0.6"/>
  </g>
</svg>
